<?xml version="1.0" encoding="utf-8"?>
<!-- Generator: Adobe Illustrator 22.0.1, SVG Export Plug-In . SVG Version: 6.00 Build 0)  -->
<svg version="1.1" id="Capa_1" xmlns="http://www.w3.org/2000/svg" xmlns:xlink="http://www.w3.org/1999/xlink" x="0px" y="0px"
	 viewBox="0 0 512 512" style="enable-background:new 0 0 512 512;" xml:space="preserve">
	 <g fill="#f78c1f">
<g>
	<g>
		<path d="M502,246h-62.4c-5.5,0-10,4.5-10,10v0.4c0,95.9-78.1,174-174,174c-75.1,0-141.4-47.8-165.1-119c-1.5-4.5-2.8-9.1-4-13.8
			c-1.3-5.4-6.7-8.7-12.1-7.4c-5.4,1.3-8.7,6.7-7.4,12.1c1.3,5.2,2.7,10.3,4.4,15.4c26.4,79.4,100.4,132.7,184.1,132.7
			c103.8,0,188.8-81.9,193.8-184.4h42.4c-2.5,59.3-26.7,114.7-68.9,156.9C378.3,467.4,319,492,256,492s-122.3-24.5-166.9-69.1
			c-92-92-92-241.7,0-333.8c91.1-91.1,240-91.8,332-1.7c3.9,3.8,10.2,3.8,14.1-0.1l2.8-2.8v54.2h-54.2l7.1-7.1
			c1.9-1.9,2.9-4.4,2.9-7.1s-1.1-5.2-3-7.1l-0.1-0.1c-36.4-35.4-84.4-54.9-135.2-54.9c-42.7,0-83.3,13.6-117.2,39.4
			c-32.8,24.9-57.3,60.3-68.9,99.7c-1.6,5.3,1.5,10.9,6.8,12.4c5.3,1.6,10.9-1.5,12.4-6.8c21.6-73.5,90.3-124.8,166.9-124.8
			c42.2,0,82.2,15,113.8,42.4l-16.8,16.8c-2.9,2.9-3.7,7.2-2.2,10.9s5.2,6.2,9.2,6.2H448c5.5,0,10-4.5,10-10V60.3
			c0-4-2.4-7.7-6.2-9.2c-3.7-1.5-8-0.7-10.9,2.2l-13,13C380.4,23.2,319.3-0.3,254.7,0C186.8,0.3,123,27,75,75
			C26.6,123.3,0,187.6,0,256s26.6,132.7,75,181c48.4,48.4,112.6,75,181,75s132.7-26.6,181-75c48.4-48.4,75-112.6,75-181
			C512,250.5,507.5,246,502,246z"/>
	</g>
</g>
<g>
	<g>
		<path d="M71.6,246.3c-5.5,0-10,4.5-10,10v0.1c0,5.5,4.5,10,10,10s10-4.5,10-10v-0.1C81.6,250.7,77.1,246.3,71.6,246.3z"/>
	</g>
</g>
<path d="M342.9,296l-82.4-42.6v-89.7c0-7.7-6.3-14-14-14s-14,6.3-14,14v106.8l97.6,50.4c2,1,4.2,1.6,6.4,1.6c5.3,0,10-2.9,12.4-7.6
	C352.5,308,349.8,299.6,342.9,296z"/>
</g>
</svg>
