<?xml version="1.0" encoding="utf-8"?>
<!-- Generator: Adobe Illustrator 22.0.1, SVG Export Plug-In . SVG Version: 6.00 Build 0)  -->
<svg version="1.1" id="Layer_1" xmlns="http://www.w3.org/2000/svg" xmlns:xlink="http://www.w3.org/1999/xlink" x="0px" y="0px"
	 viewBox="0 0 475.8 451.8" style="enable-background:new 0 0 475.8 451.8;" xml:space="preserve">
<title>calendar with time</title>
<g fill="#fff0e0">
<path d="M90,161c0-6.1-4.9-11-11-11H41c-6.1,0-11,4.9-11,11v38c0,6.1,4.9,11,11,11h38c6.1,0,11-4.9,11-11V161z M44,164h32v32H44V164
	z"/>
<path d="M166,161c0-6.1-4.9-11-11-11h-38c-6.1,0-11,4.9-11,11v38c0,6.1,4.9,11,11,11h38c6.1,0,11-4.9,11-11V161z M120,164h32v32h-32
	V164z"/>
<path d="M243,161c0-6.1-4.9-11-11-11h-38c-6.1,0-11,4.9-11,11v38c0,6.1,4.9,11,11,11h38c6.1,0,11-4.9,11-11V161z M197,164h32v32h-32
	V164z"/>
<path d="M319,161c0-6.1-4.9-11-11-11h-38c-6.1,0-11,4.9-11,11v38c0,6.1,4.9,11,11,11h38c6.1,0,11-4.9,11-11V161z M273,164h32v32h-32
	V164z"/>
<path d="M396,161c0-6.1-4.9-11-11-11h-38c-6.1,0-11,4.9-11,11v38c0,6.1,4.9,11,11,11h38c6.1,0,11-4.9,11-11V161z M350,164h32v32h-32
	V164z"/>
<path d="M91,246c0-6.1-4.9-11-11-11H42c-6.1,0-11,4.9-11,11v38c0,6.1,4.9,11,11,11l0,0h38c6.1,0,11-4.9,11-11l0,0V246z M77,281H45
	v-32h32V281z"/>
<path d="M167,246c0-6.1-4.9-11-11-11h-38c-6.1,0-11,4.9-11,11v38c0,6.1,4.9,11,11,11l0,0h38c6.1,0,11-4.9,11-11l0,0V246z M153,281
	h-32v-32h32V281z"/>
<path d="M244,246c0-6.1-4.9-11-11-11h-38c-6.1,0-11,4.9-11,11v38c0,6.1,4.9,11,11,11l0,0h38c6.1,0,11-4.9,11-11l0,0V246z M230,281
	h-32v-32h32V281z"/>
<path d="M91,325c0-6.1-4.9-11-11-11l0,0H42c-6.1,0-11,4.9-11,11l0,0v39c0,6.1,4.9,11,11,11l0,0h38c6.1,0,11-4.9,11-11l0,0V325z
	 M77,361H45v-33h32V361z"/>
<path d="M167,325c0-6.1-4.9-11-11-11l0,0h-38c-6.1,0-11,4.9-11,11l0,0v39c0,6.1,4.9,11,11,11l0,0h38c6.1,0,11-4.9,11-11l0,0V325z
	 M153,361h-32v-33h32V361z"/>
<path d="M426,252.9V87.7c0-23.9-18-42.7-41.3-42.7H370V25c0.1-13.7-11-24.9-24.7-25h-4.2c-13.8,0.1-25,11.2-25.1,25v20H110V25
	c0.1-13.7-11-24.9-24.7-25h-4.2C67.3,0.1,56.1,11.2,56,25v20H44.6C20.5,45,0,64.6,0,87.7v277.4C0,388.4,20.5,408,44.6,408H281
	c20.2,27.7,52.5,44,86.8,43.8c59.6,0,108-48.3,108-107.9C475.8,307,457,272.8,426,252.9z M356,65.1c0,6-4.9,10.9-10.9,10.9h-4.2
	c-6,0-10.9-4.9-10.9-10.9V24.9c0-6,4.9-10.9,10.9-10.9h4.2c6,0,10.9,4.9,10.9,10.9V65.1z M96,65.1c0,6-4.9,10.9-10.9,10.9
	c0,0,0,0,0,0h-4.2c-6,0-10.9-4.9-10.9-10.9c0,0,0,0,0,0V24.9c0-6,4.9-10.9,10.9-10.9c0,0,0,0,0,0h4.2c6,0,10.9,4.9,10.9,10.9
	c0,0,0,0,0,0V65.1z M14,87.7C14,72.5,28.4,59,44.6,59H56v6.2C56.1,79,67.3,90.1,81.1,90h4.2C98.9,90,110,79,110,65.4
	c0,0,0-0.1,0-0.1V59h206v6.2c0.1,13.7,11.3,24.8,25.1,24.8h4.2c13.6,0,24.7-11,24.7-24.6c0-0.1,0-0.1,0-0.2V59h14.7
	c15.4,0,27.3,12.7,27.3,28.7V116H14V87.7z M44.6,394C28.4,394,14,380.6,14,365.1V130h398v115.3c-13.9-6.4-29.1-9.6-44.4-9.5
	c-17.1,0-32.6,4-47.6,11.1v-0.7c0.1-6.1-4.8-11.1-10.8-11.1h-38c-6.1,0.1-11.1,5-11.2,11.1v38c0.1,6.1,5.1,10.9,11.2,10.9h0.2
	c-7.6,15.1-11.6,31.8-11.6,48.7c0,17.5,4.3,34.8,12.5,50.3H44.6z M279.8,281H274v-32h32v6.1C295.9,262.3,287.1,271,279.8,281z
	 M367.8,437.9c-51.9,0-94.1-42.1-94.1-94.1c0-51.9,42.1-94.1,94.1-94.1c51.9,0,94.1,42.1,94.1,94.1c0,0,0,0,0,0
	C461.8,395.7,419.7,437.8,367.8,437.9z"/>
<path d="M367,260.1c-3.9,0-7,3.1-7,7v72.8l-45,27.8c-3.3,2-4.3,6.4-2.3,9.7s6.4,4.3,9.7,2.3l48.4-29.8c2.1-1.3,3.3-3.5,3.3-6v-76.7
	C374,263.3,370.9,260.1,367,260.1z"/></g>
</svg>
