<?xml version="1.0" encoding="utf-8"?>
<!-- Generator: Adobe Illustrator 22.0.1, SVG Export Plug-In . SVG Version: 6.00 Build 0)  -->
<svg version="1.1" id="Layer_1" xmlns="http://www.w3.org/2000/svg" xmlns:xlink="http://www.w3.org/1999/xlink" x="0px" y="0px"
	 viewBox="0 0 52.1 32" style="enable-background:new 0 0 52.1 32;" xml:space="preserve">
<style type="text/css">
	.st0{fill:#F78C1F;}
	.st1{fill:#FFFFFF;}
</style>
<g>
	<path class="st0" d="M15.429,22.831c-2.534,0-4.588,2.055-4.588,4.581c0,2.533,2.055,4.588,4.588,4.588
		c2.526,0,4.581-2.055,4.581-4.588C20.01,24.886,17.955,22.831,15.429,22.831z M15.429,29.71c-1.267,0-2.298-1.031-2.298-2.298
		c0-1.259,1.031-2.29,2.298-2.29c1.259,0,2.29,1.031,2.29,2.29C17.72,28.678,16.689,29.71,15.429,29.71z M11.48,22.833H1.211
		c-0.407,0-0.736,0.33-0.736,0.736v2.234c0,0.407,0.33,0.736,0.736,0.736h8.231C9.657,25.066,10.401,23.763,11.48,22.833z
		 M39.402,22.831c-2.526,0-4.581,2.055-4.581,4.581c0,2.533,2.055,4.588,4.581,4.588c2.533,0,4.581-2.055,4.581-4.588
		C43.982,24.886,41.935,22.831,39.402,22.831z M39.402,29.71c-1.267,0-2.29-1.031-2.29-2.298c0-1.259,1.024-2.29,2.29-2.29
		c1.267,0,2.29,1.031,2.29,2.29C41.692,28.678,40.668,29.71,39.402,29.71z M51.347,22.831h-1.79V12.822
		c0-1.171-0.354-2.32-1.009-3.292l-4.485-6.643c-1.09-1.62-2.924-2.592-4.883-2.592h-6.952c-0.81,0-1.473,0.655-1.473,1.473v21.063
		H19.377c1.075,0.935,1.819,2.232,2.033,3.712h12.012c0.42-2.924,2.939-5.185,5.98-5.185c3.042,0,5.56,2.261,5.987,5.185h5.958
		c0.412,0,0.736-0.331,0.736-0.736v-2.239C52.084,23.162,51.76,22.831,51.347,22.831z M44.012,10.856h-9.176
		c-0.405,0-0.736-0.324-0.736-0.736V5.03c0-0.405,0.332-0.736,0.736-0.736h5.59c0.243,0,0.471,0.118,0.604,0.309l3.587,5.096
		C44.962,10.185,44.608,10.856,44.012,10.856z M27.25,21.358H1.473C0.659,21.358,0,20.698,0,19.885V1.473C0,0.659,0.659,0,1.473,0
		H27.25c0.814,0,1.473,0.659,1.473,1.473v18.412C28.723,20.698,28.063,21.358,27.25,21.358z M11.784,9.574H1.473
		C0.659,9.574,0,8.915,0,8.101V1.473C0,0.659,0.659,0,1.473,0h10.311c0.814,0,1.473,0.659,1.473,1.473v6.628
		C13.257,8.915,12.597,9.574,11.784,9.574z M27.25,9.574H16.939c-0.814,0-1.473-0.659-1.473-1.473V1.473
		C15.466,0.659,16.126,0,16.939,0H27.25c0.814,0,1.473,0.659,1.473,1.473v6.628C28.723,8.915,28.063,9.574,27.25,9.574z"/>
	<path class="st1" d="M6.964,15.879c-0.488-0.427-0.834-1.088-0.559-1.577c0.092-0.173,1.994-3.581,1.994-3.581
		c0.183-0.356,0.702-0.315,0.61,0.163c-0.061,0.305-1.2,1.963-0.966,2.757c0.142,0.478,0.366,1.078,1.322,1.241
		c1.109,0.193,3.581,0.153,4.71,0.366c0.498,0.102,0.509,0.692,0.051,0.753c-0.142,0.02-3.062-0.336-3.652,0.112
		c-0.142,0.102-0.254,0.224-0.203,0.397c0.183,0.59,2.146,1.2,2.665,1.709c0.264,0.264,0.041,0.875-0.539,0.692
		C12.071,18.809,8.134,16.917,6.964,15.879z"/>
	<path class="st1" d="M6.354,13.58c-0.203,0.387-0.692,0.539-1.078,0.326c-0.387-0.214-0.529-0.692-0.326-1.078
		c0.203-0.387,0.692-0.539,1.078-0.326C6.425,12.705,6.568,13.194,6.354,13.58z"/>
	<path class="st1" d="M21.277,14.547c-0.132,0.641-0.529,1.261-1.078,1.272c-0.203,0-4.1,0.061-4.1,0.061
		c-0.407,0.02-0.621-0.448-0.173-0.61c0.295-0.102,2.299,0.051,2.869-0.549c0.346-0.366,0.753-0.865,0.417-1.77
		c-0.387-1.058-1.658-3.184-2.035-4.262c-0.163-0.478,0.346-0.783,0.621-0.417c0.092,0.122,1.241,2.818,1.923,3.113
		c0.163,0.071,0.326,0.112,0.437-0.02c0.417-0.458-0.041-2.462,0.153-3.164c0.092-0.356,0.732-0.468,0.865,0.122
		C21.257,8.657,21.582,13.01,21.277,14.547z"/>
	<path class="st1" d="M19.588,16.215c0.437-0.01,0.814,0.336,0.824,0.773c0.01,0.437-0.336,0.814-0.773,0.824
		c-0.437,0.01-0.814-0.336-0.824-0.773C18.795,16.601,19.141,16.235,19.588,16.215z"/>
	<path class="st1" d="M12.986,2.98c0.621-0.203,1.353-0.163,1.638,0.315c0.102,0.173,2.075,3.54,2.075,3.54
		c0.214,0.346-0.092,0.763-0.448,0.448c-0.234-0.203-1.088-2.024-1.892-2.228c-0.488-0.122-1.119-0.234-1.75,0.509
		c-0.722,0.854-1.953,3.011-2.706,3.866C9.568,9.806,9.05,9.521,9.233,9.094c0.061-0.132,1.841-2.472,1.76-3.204
		c-0.02-0.173-0.061-0.336-0.234-0.366c-0.6-0.132-2.126,1.241-2.828,1.424C7.575,7.039,7.158,6.541,7.615,6.134
		C7.87,5.91,11.501,3.479,12.986,2.98z"/>
	<path class="st1" d="M15.275,3.631c-0.224-0.376-0.112-0.865,0.264-1.099c0.376-0.234,0.865-0.112,1.099,0.264
		c0.224,0.376,0.112,0.865-0.264,1.099C15.998,4.13,15.509,4.008,15.275,3.631z"/>
	<path class="st1" d="M13.871,8.229c-1.516,0-2.736,1.231-2.736,2.736c0,1.516,1.231,2.736,2.736,2.736
		c1.516,0,2.736-1.231,2.736-2.736C16.618,9.46,15.387,8.229,13.871,8.229z M14.879,12.583c-0.01-0.214-0.01-0.427-0.02-0.661
		c0-0.234-0.01-0.468-0.02-0.702c-0.01-0.234-0.02-0.458-0.031-0.682c-0.01-0.224-0.02-0.417-0.031-0.61
		c-0.031,0.081-0.061,0.183-0.112,0.295c-0.041,0.122-0.092,0.244-0.132,0.387c-0.051,0.142-0.092,0.285-0.142,0.427
		c-0.051,0.142-0.092,0.285-0.142,0.427c-0.041,0.132-0.081,0.264-0.112,0.376c-0.031,0.112-0.061,0.203-0.081,0.275h-0.366
		c-0.061-0.224-0.132-0.448-0.193-0.661c-0.071-0.214-0.132-0.407-0.193-0.59c-0.061-0.183-0.122-0.356-0.173-0.509
		c-0.061-0.153-0.112-0.285-0.153-0.397c-0.01,0.183-0.02,0.376-0.031,0.6c-0.01,0.214-0.02,0.437-0.02,0.671
		c-0.01,0.224-0.01,0.458-0.02,0.692c-0.01,0.234-0.01,0.448-0.01,0.661h-0.407c0.01-0.285,0.02-0.57,0.031-0.865
		c0.01-0.285,0.02-0.58,0.031-0.854c0.01-0.285,0.031-0.549,0.051-0.824c0.02-0.264,0.041-0.519,0.061-0.753h0.427
		c0.061,0.132,0.122,0.295,0.193,0.488c0.071,0.193,0.142,0.387,0.224,0.59c0.071,0.203,0.142,0.417,0.214,0.621
		c0.071,0.203,0.132,0.397,0.183,0.57c0.051-0.173,0.112-0.356,0.173-0.57c0.061-0.203,0.132-0.417,0.203-0.621
		s0.142-0.407,0.214-0.59c0.071-0.183,0.132-0.346,0.193-0.488h0.427c0.02,0.234,0.041,0.488,0.061,0.753
		c0.02,0.264,0.031,0.539,0.051,0.824c0.01,0.285,0.031,0.57,0.031,0.854c0.01,0.295,0.02,0.58,0.031,0.865H14.879z"/>
</g>
</svg>
