<?xml version="1.0" encoding="utf-8"?>
<!-- Generator: Adobe Illustrator 22.0.1, SVG Export Plug-In . SVG Version: 6.00 Build 0)  -->
<svg version="1.1" id="Capa_1" xmlns="http://www.w3.org/2000/svg" xmlns:xlink="http://www.w3.org/1999/xlink" x="0px" y="0px"
	 viewBox="0 0 512 512" style="enable-background:new 0 0 512 512;" xml:space="preserve">
 <g fill="#f78c1f">
	<path d="M503.5,264.5h-51.2h-42.7h-51.2c-4.7,0-8.5,3.8-8.5,8.5v136.5c0,4.7,3.8,8.5,8.5,8.5h145.1c4.7,0,8.5-3.8,8.5-8.5V273.1
		C512,268.3,508.2,264.5,503.5,264.5z M443.7,281.6v34.1h-25.6v-34.1H443.7z M494.9,401.1h-128V281.6h34.1v42.7
		c0,4.7,3.8,8.5,8.5,8.5h42.7c4.7,0,8.5-3.8,8.5-8.5v-42.7h34.1V401.1z"/>
	<path d="M230.4,418.1c-14.1,0-25.6,11.5-25.6,25.6s11.5,25.6,25.6,25.6s25.6-11.5,25.6-25.6S244.5,418.1,230.4,418.1z M230.4,452.3
		c-4.7,0-8.5-3.8-8.5-8.5c0-4.7,3.8-8.5,8.5-8.5c4.7,0,8.5,3.8,8.5,8.5C238.9,448.4,235.1,452.3,230.4,452.3z"/>
	<path d="M332.8,8.5c0-4.7-3.8-8.5-8.5-8.5h-34.1c-4.7,0-8.5,3.8-8.5,8.5v271L211,138.3c-5.8-11.6-17.5-18.9-30.5-18.9H25.6
		C11.5,119.5,0,131,0,145.1v196.3v0v119.5C0,489,23,512,51.2,512c15.1,0,28.7-6.6,38.1-17.1h96c12,10.6,27.8,17.1,45.1,17.1
		c20.5,0,38.9-9.1,51.5-23.5c0.9,3.7,4.3,6.4,8.3,6.4h34.1c4.7,0,8.5-3.8,8.5-8.5v-34.1H512v-17.1H332.8V8.5z M281.6,361.9v36.7
		c-5.8-6.6-12.8-12-20.7-16L281.6,361.9z M25.6,136.5h154.9c6.5,0,12.3,3.6,15.2,9.4l85.9,171.8v20.1l0,0l-77.5-77.5l15.3-15.3
		l-12.1-12.1l-42.7,42.7l12.1,12.1l15.3-15.3l77.5,77.5l-25.6,25.6h-28.2l-52.8-33c4.7-4.6,7.6-11.1,7.6-18.2
		c0-14.1-11.5-25.6-25.6-25.6H85.3v-68.3c0-14.1-11.5-25.6-25.6-25.6c-14.1,0-25.6,11.5-25.6,25.6v102.4H17.1V145.1
		C17.1,140.4,20.9,136.5,25.6,136.5z M76.8,315.7h68.3c4.7,0,8.5,3.8,8.5,8.5c0,4.7-3.8,8.5-8.5,8.5h-8.5v0H51.2V230.4
		c0-4.7,3.8-8.5,8.5-8.5c4.7,0,8.5,3.8,8.5,8.5v76.8C68.3,311.9,72.1,315.7,76.8,315.7z M51.2,494.9c-18.8,0-34.1-15.3-34.1-34.1
		c0-18.8,15.3-34.1,34.1-34.1c18.8,0,34.1,15.3,34.1,34.1C85.3,479.6,70,494.9,51.2,494.9z M51.2,409.6c-13.1,0-25.1,5-34.1,13.1
		v-72.8h125.6l54.7,34.2c-21,11.7-35.2,34-35.2,59.7c0,12.4,3.4,24.1,9.2,34.1H99.5c1.9-5.3,2.9-11.1,2.9-17.1
		C102.4,432.6,79.4,409.6,51.2,409.6z M230.4,494.9c-28.2,0-51.2-23-51.2-51.2c0-28.2,22.9-51.2,51.2-51.2h0.1
		c28.2,0,51.2,23,51.2,51.2C281.6,472,258.6,494.9,230.4,494.9z M315.7,477.9h-17.1v-34.1c0,0,0,0,0,0c0,0,0,0,0,0l0,0v-128
		c0,0,0,0,0,0V17.1h17.1V477.9z"/>
	<rect x="42.7" y="452.3" width="17.1" height="17.1"/>
</g>
</svg>
