<?xml version="1.0" encoding="utf-8"?>
<!-- Generator: Adobe Illustrator 22.0.1, SVG Export Plug-In . SVG Version: 6.00 Build 0)  -->
<svg version="1.1" id="Layer_1" xmlns="http://www.w3.org/2000/svg" xmlns:xlink="http://www.w3.org/1999/xlink" x="0px" y="0px"
	 viewBox="0 0 512 446.2" style="enable-background:new 0 0 512 446.2;" xml:space="preserve">
	 <g fill="#f78c1f">
<path d="M475.5,404.4l-28.2-32.3h-54.2v15h47.4l15.1,17.3h-55.9l-28.1-32.3h-68.3c11.8-17.9,24.7-40.5,37.5-65.5
	c27.2-53.5,56.4-125.1,56.4-165.5C397.1,63.3,333.8,0,256,0S114.9,63.3,114.9,141.1c0,40.4,29.1,112,56.4,165.5
	c12.4,24.3,25.3,47,37.5,65.5h-64.9l-51.6,59.1H33l38.5-44.1h17.1l-14.9,17.1l11.3,9.9l23.5-27h15.8v-15H64.7L0,446.2h512
	L475.5,404.4z M132.9,141.1C132.9,73.2,188.1,18,256,18s123.1,55.2,123.1,123.1c0,30.7-20.5,90.4-53.5,155.6
	c-14.5,28.7-29.9,54.9-43.1,73.9c-16.5,23.7-24.3,28.4-26.3,29.3l-0.1,0.1l-0.1-0.1c-2-0.9-9.8-5.6-26.3-29.3
	c-13.2-19-28.5-45.2-43.1-73.9C153.4,231.5,132.9,171.8,132.9,141.1z M112.3,431.2l38.5-44.1h28.3l-38.5,44.1H112.3z M160.5,431.3
	L160.5,431.3l49.7-57c1.2,1.9,2.5,3.7,3.7,5.5c0.7,1,1.4,2,2.1,3c5.2,7.4,10.2,13.8,14.7,18.9H204v15h109.3v-15h-32.1
	c4.5-5.1,9.5-11.5,14.7-18.9c1-1.5,2.1-3,3.2-4.5c0.7-1,1.4-2,2.1-3.1l49,56.1H160.5z M370.1,431.2l-38.5-44.1h33.1l28.1,32.3h75.8
	l10.3,11.8L370.1,431.2L370.1,431.2z"/>
<path d="M256,54.6c-45.5,0-82.5,37-82.5,82.5s37,82.5,82.5,82.5s82.5-37,82.5-82.5S301.5,54.6,256,54.6z M256,202.6
	c-36.1,0-65.5-29.4-65.5-65.5s29.4-65.5,65.5-65.5s65.5,29.4,65.5,65.5S292.1,202.6,256,202.6z"/>
</g>
</svg>
