<?xml version="1.0" encoding="utf-8"?>
<!-- Generator: Adobe Illustrator 22.0.1, SVG Export Plug-In . SVG Version: 6.00 Build 0)  -->
<svg version="1.1" id="Layer_1" xmlns="http://www.w3.org/2000/svg" xmlns:xlink="http://www.w3.org/1999/xlink" x="0px" y="0px"
	 viewBox="0 0 496 496" style="enable-background:new 0 0 496 496;" xml:space="preserve">
	 <g fill="#fff0e0">
<path d="M456,128h-24V0H64v128H40c-22.1,0-40,17.9-40,40v240c0,22.1,17.9,40,40,40h104v32h-32v16h272v-16h-32v-32h104
	c22.1,0,40-17.9,40-40V168C496,145.9,478.1,128,456,128z M292.4,136.2c0.9-0.8,1.9-1.5,2.8-2.3L416,25.9v205.8L292.4,136.2z
	 M284.5,122c-10.1,9-23,14-36.5,14s-26.5-5-36.5-14L92.9,16h310.1L284.5,122z M200.8,134c0.9,0.8,1.8,1.5,2.8,2.3L80,231.7V25.9
	L200.8,134z M218,145.3c9.3,4.4,19.5,6.7,30,6.7s20.7-2.4,30-6.7L400.6,240H95.4L218,145.3z M40,144h24v112h368V144h24
	c13.2,0,24,10.8,24,24v216H16V168C16,154.8,26.8,144,40,144z M336,480H160v-32h176V480z M456,432H40c-13.2,0-24-10.8-24-24v-8h464v8
	C480,421.2,469.2,432,456,432z"/>
<path d="M240,272h16v96h-16V272z"/>
<path d="M288,272h16v80h-16V272z"/>
<path d="M336,272h16v64h-16V272z"/>
<path d="M192,272h16v80h-16V272z"/>
<path d="M144,272h16v64h-16V272z"/></g>
</svg>
