<?xml version="1.0" encoding="utf-8"?>
<!-- Generator: Adobe Illustrator 22.0.1, SVG Export Plug-In . SVG Version: 6.00 Build 0)  -->
<svg version="1.1" id="Layer_1" xmlns="http://www.w3.org/2000/svg" xmlns:xlink="http://www.w3.org/1999/xlink" x="0px" y="0px"
	 viewBox="0 0 413.1 348" style="enable-background:new 0 0 413.1 348;" xml:space="preserve">
<path fill="#f78c1f" d="M413,23.8L413,23.8C411.3,10.3,400,0,386.3,0h-163c-6.4,0-12.2,2.2-16.8,5.9C201.9,2.2,196,0,189.7,0h-163
	C13,0,1.7,10.3,0.1,23.6v0.1C0,24.1,0,24.6,0,25c0,0.1,0,0.2,0,0.2V34v123.1v0.2c0,6.3,2.2,12.1,5.8,16.7C2.1,178.6,0,184.5,0,190.7
	v0.2V314v8.8c0,0,0,0.1,0,0.2c0,0.4,0,0.9,0.1,1.3v0.1C1.7,337.7,13,348,26.7,348h163c6.3,0,12.2-2.2,16.8-5.9
	c4.6,3.7,10.4,5.9,16.8,5.9h163c13.7,0,25-10.3,26.7-23.7v-0.1c0-0.4,0.1-0.9,0.1-1.3c0,0,0-0.1,0-0.2v-11.2V190.8l0,0
	c0-0.9-0.1-1.8-0.1-2.6c-0.3-2.7-0.9-5.3-2-7.7c-1-2.3-2.2-4.5-3.8-6.4c1.6-1.9,2.8-4.1,3.8-6.4c1-2.4,1.7-5,2-7.7
	c0.1-0.9,0.1-1.8,0.1-2.6l0,0V36.5V25.3c0-0.1,0-0.2,0-0.2C413.1,24.7,413,24.2,413,23.8z M223.3,20h162.9c3,0,5.6,2.1,6.5,4.8
	c0.1,0.2,0.1,0.4,0.2,0.6c0,0.1,0,0.2,0,0.2c0,0.1,0.1,0.3,0.1,0.4v131.1c0,3.7-3.1,6.8-6.8,6.8H223.3c-3.7,0-6.8-3.1-6.8-6.8V26.8
	l0,0C216.5,23.1,219.6,20,223.3,20z M19.9,26.1c0-0.1,0-0.3,0.1-0.4c0-0.1,0-0.2,0-0.2c0-0.2,0.1-0.4,0.2-0.6
	c0.9-2.8,3.5-4.8,6.5-4.8h134.8V20h28.2c3.7,0,6.8,3.1,6.8,6.8V35v122.2c0,3.7-3.1,6.8-6.8,6.8h-163c-3.7,0-6.8-3.1-6.8-6.8V34
	C19.9,34,19.9,26.1,19.9,26.1z M196.5,321.2c0,3.7-3.1,6.8-6.8,6.8h-28.2v-0.1H26.7c-3,0-5.6-2-6.5-4.8c-0.1-0.2-0.2-0.4-0.2-0.6
	c0,0,0-0.1,0-0.2c-0.1-0.1-0.1-0.3-0.1-0.4V314V190.8c0-3.7,3.1-6.8,6.8-6.8h163c3.7,0,6.8,3.1,6.8,6.8V313L196.5,321.2L196.5,321.2
	z M393,322c0,0.1-0.1,0.3-0.1,0.4c0,0,0,0.1,0,0.2c-0.1,0.2-0.1,0.4-0.2,0.6c-0.9,2.7-3.5,4.8-6.5,4.8H223.3c-3.7,0-6.8-3.1-6.8-6.8
	l0,0V190.9c0-3.7,3.1-6.8,6.8-6.8h162.9c3.7,0,6.8,3.1,6.8,6.8L393,322L393,322z"/>
</svg>
