<?xml version="1.0" encoding="utf-8"?>
<!-- Generator: Adobe Illustrator 22.0.1, SVG Export Plug-In . SVG Version: 6.00 Build 0)  -->
<svg version="1.1" id="Capa_1" xmlns="http://www.w3.org/2000/svg" xmlns:xlink="http://www.w3.org/1999/xlink" x="0px" y="0px"
	 viewBox="0 0 480.1 464" style="enable-background:new 0 0 480.1 464;" xml:space="preserve">
	 <g fill="#f78c1f">
<g>
	<g>
		<path d="M435.5,56.8c-2.2-1.1-4.9-1.1-7.1,0.1l-34.5,17.5l-27-46.4C357.7,10.7,339.6-0.1,320,0H186.7c-19.9,0-38.4,10.5-48.7,27.5
			l-24.8,40.3c-2.3,3.7-1.2,8.6,2.5,10.9l88,56c1.3,0.8,2.8,1.2,4.3,1.2c0.7,0,1.3-0.1,2-0.2c2.1-0.5,4-1.9,5-3.9l33.6-60.5
			l36.8,69.6l-33.5,20.1c-2.9,1.8-4.4,5.2-3.7,8.6c0.7,3.4,3.5,5.9,6.9,6.3l119.1,13.5c0.3,0,0.6,0,0.9,0c3.1,0,5.9-1.8,7.2-4.5
			l56.9-117.5C441.1,63.5,439.5,58.7,435.5,56.8z M205.1,116.7L131,69.5l20.7-33.7c7.4-12.3,20.7-19.8,35-19.8h32.5L239,55.8
			L205.1,116.7z M370.3,173l-90-10.2l19.8-11.9c3.6-2.2,4.9-6.8,3-10.6L237.4,16H320c13.9,0,26.6,7.7,33.1,20l30.8,52.9
			c2.1,3.7,6.8,5,10.5,3.1l20-10.2L370.3,173z"/>
	</g>
</g>
<g>
	<g>
		<path d="M473,224l-25.9-51.6c-2-4-6.8-5.6-10.7-3.6c-0.2,0.1-0.3,0.2-0.5,0.3l-96,56c-3.8,2.2-5.1,7-3,10.8l33.4,60.1H296v-32
			c0-4.4-3.6-8-8-8c-2.3,0-4.4,0.9-5.9,2.6l-80,88c-2.6,2.9-2.8,7.2-0.4,10.3l80,104c2.7,3.5,7.7,4.1,11.2,1.5
			c2-1.5,3.1-3.9,3.1-6.3v-24h56c19.7,0.5,38-10.4,46.9-28l56-96l16.6-26.9C482.3,263.8,482.9,242,473,224z M385,396.1
			c-6.2,12.5-19.1,20.3-33,19.9h-64c-4.4,0-8,3.6-8,8v8.5l-61.6-80l61.6-67.7V304c0,4.4,3.6,8,8,8h146.1L385,396.1z M457.9,272.8
			L443.5,296h-54.8l-33.9-61l81.9-47.8l22.2,44.3C466,244.4,465.7,260.2,457.9,272.8z"/>
	</g>
</g>
<g>
	<g>
		<path d="M191.3,236.6l-48-104c-1.4-3-4.5-4.9-7.8-4.6l-128,8c-4.4,0.3-7.8,4.1-7.5,8.5c0.2,2.6,1.6,4.9,3.8,6.3l0,0l39.6,24.5
			l-26.4,52.9c-9.6,17.4-9.5,38.5,0.1,55.8l44.5,76.9L86,403c10.5,17.8,29.4,28.7,50.1,29h32c4.4,0,8-3.6,8-8V312c0-4.4-3.6-8-8-8
			h-59.8l39.9-69.2l33,12.7c4.1,1.6,8.8-0.5,10.3-4.6C192.3,240.9,192.2,238.6,191.3,236.6z M160,320v96h-24
			c-14.9-0.1-28.7-8.1-36.2-20.9l-22-38l22.7-37H160z M147.5,217.4c-3.7-1.4-7.8,0.1-9.8,3.5L68.5,340.9L30.9,276
			c-6.9-12.6-6.8-27.9,0.3-40.4L61,175.9c1.9-3.7,0.6-8.2-2.9-10.4l-24.5-15.1l97.5-6.1l37.4,81.1L147.5,217.4z"/>
	</g>
</g>
</g>
</svg>
