<?xml version="1.0" encoding="utf-8"?>
<!-- Generator: Adobe Illustrator 22.0.1, SVG Export Plug-In . SVG Version: 6.00 Build 0)  -->
<svg version="1.1" id="Layer_1" xmlns="http://www.w3.org/2000/svg" xmlns:xlink="http://www.w3.org/1999/xlink" x="0px" y="0px"
	 viewBox="0 0 436 416" style="enable-background:new 0 0 436 416;" xml:space="preserve">
	 <g fill="#f78c1f">
<path d="M426,0H10C4.5,0,0,4,0,9.5v11.6C0,48.7,22.4,71,50,71h124l-13.3,40H81.2c-4.2-0.1-7.9,2.5-9.4,6.4l-30.1,82.7
	c-0.4,1.1-0.7,2.2-0.7,3.3v183C41,403,54.7,416,71.2,416h293.6c16.5,0,30.2-13,30.2-29.5v-183c0-1.2-0.3-2.3-0.7-3.4l-30-82.6
	c-1.5-3.9-5.3-6.5-9.5-6.4h-79.5L262,71h124c27.6,0,50-22.3,50-49.9V9.5C436,4,431.5,0,426,0z M364.8,396H71.2
	c-5.5,0-10.2-4-10.2-9.5V376h314v10.5C375,392,370.3,396,364.8,396z M375,205.2V356H61V205.2L88.2,131h259.6L375,205.2z M254.2,111
	h-72.4l13.3-40h45.9L254.2,111z M416,21.1c0,16.5-13.5,29.9-30,29.9H50c-16.5,0-30-13.3-30-29.9V20h396V21.1z"/>
<path d="M218,324.5c41.4,0,74.9-33.5,74.9-74.9c0-41.4-33.5-74.9-74.9-74.9c-41.4,0-74.9,33.5-74.9,74.9
	C143.2,291,176.7,324.5,218,324.5z M218,194.8c30.3,0,54.9,24.6,54.9,54.9s-24.6,54.9-54.9,54.9s-54.9-24.6-54.9-54.9
	C163.1,219.3,187.7,194.8,218,194.8z"/>
<path d="M218,255c5.5,0,10-4.5,10-10v-28c0-5.5-4.5-10-10-10s-10,4.5-10,10v28C208,250.5,212.5,255,218,255z"/>
</g>
</svg>
