<?xml version="1.0" encoding="utf-8"?>
<!-- Generator: Adobe Illustrator 22.0.1, SVG Export Plug-In . SVG Version: 6.00 Build 0)  -->
<svg version="1.1" id="Layer_1" xmlns="http://www.w3.org/2000/svg" xmlns:xlink="http://www.w3.org/1999/xlink" x="0px" y="0px"
	 viewBox="0 0 504.1 410.3" style="enable-background:new 0 0 504.1 410.3;" xml:space="preserve">
<path fill="#fff0e0" d="M0.1,356.4c0,8,6.5,14.6,14.6,14.6h50.5l0.7,2.5c6.2,21.7,26.3,36.8,48.9,36.8c22.5,0,42.6-15.1,48.9-36.8l0.7-2.5h190.5
	l0.7,2.5c6.2,21.7,26.3,36.8,48.9,36.8c22.5,0,42.6-15.1,48.9-36.8l0.7-2.5h35.4c8,0,14.6-6.5,14.6-14.6V208.8
	c0-13.8-4.3-27-12.6-38.2l-56.7-74.3c-11.1-14.5-28.6-23.2-46.9-23.2h-60.1V29.8c0-8-3-15.2-8.8-21C313.3,3.1,306,0,298.1,0H29.8
	c-8,0-15.2,3-21,8.8C3.1,14.6,0,21.8,0,29.7L0.1,356.4L0.1,356.4z M404.5,387.3c-15.4,0-27.9-12.5-27.9-27.8s12.5-27.8,27.9-27.8
	s27.9,12.5,27.9,27.8S419.9,387.3,404.5,387.3z M327.8,96h60.1c11.2,0,21.9,5.3,28.7,14.2l56.5,74.1c5.3,7.2,8.1,15.6,8.1,24.5v3.7
	H327.8V96z M327.8,235.5h153.3V348H454l-0.7-2.5c-6.2-21.7-26.3-36.8-48.9-36.8c-22.5,0-42.6,15.1-48.9,36.8l-0.7,2.5h-27.1V235.5
	H327.8z M114.8,387.3c-15.4,0-27.9-12.5-27.9-27.8s12.5-27.8,27.9-27.8s27.9,12.5,27.9,27.8S130.2,387.3,114.8,387.3z M23,286.2
	h21.4c6.3,0,11.5-5.1,11.5-11.5c0-6.3-5.1-11.5-11.5-11.5H23v-20.5h21.8c6.3,0,11.5-5.1,11.5-11.5s-5.1-11.5-11.5-11.5H23V29.8
	c0-1.4,0.2-2.9,2-4.7c1.8-1.8,3.4-2.1,4.7-2.1H298c1.4,0,2.9,0.3,4.7,2.1c1.8,1.8,2.1,3.3,2.1,4.7V348H164.4l-0.7-2.5
	c-6.2-21.7-26.3-36.8-48.9-36.8c-22.5,0-42.6,15.1-48.9,36.8l-0.7,2.5H23V286.2z"/>
</svg>